<?xml version="1.0" encoding="UTF-8"?>
<svg xmlns="http://www.w3.org/2000/svg" xmlns:xlink="http://www.w3.org/1999/xlink" width="32px" height="32px" viewBox="0 0 32 32" version="1.1">
<g id="surface3">
<path style="fill-rule:nonzero;fill:rgb(93.72549%,93.72549%,93.72549%);fill-opacity:1;stroke-width:1;stroke-linecap:round;stroke-linejoin:round;stroke:rgb(18.823529%,23.529412%,25.882353%);stroke-opacity:1;stroke-miterlimit:4;" d="M 20.499905 5.498696 L 20.499905 22.001201 C 20.499905 22.828892 19.82854 23.499387 19.000436 23.499387 L 5.001034 23.499387 C 4.170318 23.499387 3.498952 22.828892 3.498952 22.001201 L 3.498952 1.998651 C 3.498952 1.170959 4.170318 0.500465 5.001034 0.500465 L 15.499932 0.500465 Z M 20.499905 5.498696 " transform="matrix(1.495321,0,0,1.217618,-4.485962,0.000000000000007105)"/>
<path style="fill-rule:nonzero;fill:rgb(93.72549%,93.72549%,93.72549%);fill-opacity:1;stroke-width:1;stroke-linecap:round;stroke-linejoin:round;stroke:rgb(18.823529%,23.529412%,25.882353%);stroke-opacity:1;stroke-miterlimit:4;" d="M 15.499932 0.500465 L 15.499932 4.00051 C 15.499932 4.828202 16.171297 5.498696 16.999402 5.498696 L 20.499905 5.498696 " transform="matrix(1.495321,0,0,1.217618,-4.485962,0.000000000000007105)"/>
<path style="fill-rule:nonzero;fill:rgb(93.72549%,93.72549%,93.72549%);fill-opacity:1;stroke-width:1;stroke-linecap:round;stroke-linejoin:round;stroke:rgb(18.823529%,23.529412%,25.882353%);stroke-opacity:1;stroke-miterlimit:4;" d="M 20.499141 5.498455 L 20.499141 22.000959 C 20.499141 22.828651 19.827776 23.499145 18.999672 23.499145 L 5.00027 23.499145 C 4.172166 23.499145 3.500801 22.828651 3.500801 22.000959 L 3.500801 1.99841 C 3.500801 1.170718 4.172166 0.500224 5.00027 0.500224 L 15.499168 0.500224 Z M 20.499141 5.498455 " transform="matrix(1.495321,0,0,1.217618,-0.0238824,2.863575)"/>
<path style="fill-rule:nonzero;fill:rgb(93.72549%,93.72549%,93.72549%);fill-opacity:1;stroke-width:1;stroke-linecap:round;stroke-linejoin:round;stroke:rgb(18.823529%,23.529412%,25.882353%);stroke-opacity:1;stroke-miterlimit:4;" d="M 15.499168 0.500224 L 15.499168 4.000269 C 15.499168 4.82796 16.170534 5.498455 17.00125 5.498455 L 20.499141 5.498455 " transform="matrix(1.495321,0,0,1.217618,-0.0238824,2.863575)"/>
<path style=" stroke:none;fill-rule:nonzero;fill:rgb(100%,0%,0%);fill-opacity:1;" d="M 31.269531 29.222656 L 19.941406 29.222656 C 19.421875 29.222656 18.992188 28.875 18.992188 28.449219 L 18.992188 23.347656 C 18.992188 22.921875 19.421875 22.574219 19.941406 22.574219 L 31.269531 22.574219 C 31.792969 22.574219 32.21875 22.921875 32.21875 23.347656 L 32.21875 28.453125 C 32.21875 28.875 31.792969 29.222656 31.269531 29.222656 Z M 31.269531 29.222656 "/>
<path style=" stroke:none;fill-rule:nonzero;fill:rgb(0%,0%,0%);fill-opacity:1;" d="M 23.097656 25.160156 C 23.097656 25.519531 22.945312 25.792969 22.644531 25.988281 C 22.34375 26.179688 21.914062 26.277344 21.355469 26.277344 L 20.84375 26.277344 L 20.84375 27.671875 L 20.335938 27.671875 L 20.335938 24.128906 L 21.464844 24.128906 C 22.550781 24.128906 23.097656 24.472656 23.097656 25.160156 Z M 20.84375 24.484375 L 20.84375 25.921875 L 21.296875 25.921875 C 21.746094 25.921875 22.070312 25.863281 22.273438 25.746094 C 22.472656 25.628906 22.570312 25.441406 22.570312 25.179688 C 22.570312 24.945312 22.476562 24.769531 22.289062 24.65625 C 22.101562 24.542969 21.808594 24.484375 21.410156 24.484375 Z M 27.480469 25.867188 C 27.480469 26.449219 27.285156 26.898438 26.894531 27.207031 C 26.503906 27.515625 25.945312 27.671875 25.210938 27.671875 L 24.007812 27.671875 L 24.007812 24.128906 L 25.339844 24.128906 C 26.015625 24.128906 26.542969 24.28125 26.917969 24.585938 C 27.292969 24.890625 27.480469 25.316406 27.480469 25.867188 Z M 26.945312 25.878906 C 26.945312 25.417969 26.800781 25.070312 26.515625 24.835938 C 26.234375 24.601562 25.808594 24.484375 25.246094 24.484375 L 24.511719 24.484375 L 24.511719 27.3125 L 25.128906 27.3125 C 25.730469 27.3125 26.183594 27.191406 26.488281 26.953125 C 26.792969 26.710938 26.945312 26.351562 26.945312 25.878906 Z M 28.957031 26.15625 L 28.957031 27.671875 L 28.449219 27.671875 L 28.449219 24.128906 L 30.875 24.128906 L 30.875 24.492188 L 28.957031 24.492188 L 28.957031 25.789062 L 30.757812 25.789062 L 30.757812 26.15625 Z M 28.957031 26.15625 "/>
<path style=" stroke:none;fill-rule:nonzero;fill:rgb(0%,0%,0%);fill-opacity:1;" d="M 21.773438 16.492188 C 21.710938 16.316406 21.617188 16.136719 21.5 15.941406 C 21.722656 15.691406 21.984375 15.445312 22.207031 15.164062 C 22.277344 15.089844 22.277344 15 22.207031 14.914062 C 21.925781 14.578125 21.453125 14.234375 21.0625 13.964844 C 20.96875 13.886719 20.839844 13.886719 20.734375 13.953125 L 19.742188 14.550781 C 19.554688 14.472656 19.328125 14.40625 19.128906 14.339844 L 18.941406 13.320312 C 18.929688 13.214844 18.835938 13.148438 18.691406 13.148438 L 17.160156 13.148438 C 17.015625 13.148438 16.921875 13.214844 16.898438 13.3125 C 16.804688 13.636719 16.757812 14.011719 16.710938 14.339844 C 16.5 14.394531 16.285156 14.464844 16.097656 14.558594 L 15.140625 13.964844 C 15.082031 13.925781 15 13.898438 14.953125 13.898438 C 14.71875 13.898438 13.796875 14.734375 13.621094 14.914062 C 13.527344 15.011719 13.539062 15.070312 13.632812 15.175781 C 13.878906 15.445312 14.128906 15.691406 14.363281 15.953125 C 14.257812 16.136719 14.175781 16.277344 14.105469 16.472656 L 12.804688 16.625 C 12.699219 16.644531 12.617188 16.75 12.617188 16.847656 L 12.617188 18.085938 C 12.617188 18.179688 12.699219 18.265625 12.816406 18.285156 L 14.070312 18.449219 C 14.128906 18.621094 14.234375 18.804688 14.339844 18.988281 C 14.117188 19.246094 13.867188 19.488281 13.632812 19.765625 C 13.5625 19.851562 13.574219 19.9375 13.632812 20.015625 C 13.925781 20.351562 14.386719 20.699219 14.777344 20.976562 C 14.882812 21.054688 15 21.054688 15.105469 20.996094 L 16.097656 20.398438 C 16.296875 20.476562 16.511719 20.542969 16.710938 20.601562 L 16.898438 21.628906 C 16.910156 21.714844 17.015625 21.800781 17.160156 21.800781 L 18.691406 21.800781 C 18.835938 21.800781 18.90625 21.734375 18.941406 21.640625 C 19.046875 21.3125 19.09375 20.9375 19.140625 20.609375 C 19.351562 20.554688 19.566406 20.476562 19.765625 20.398438 L 20.722656 21.003906 C 20.78125 21.042969 20.851562 21.054688 20.910156 21.054688 C 21.132812 21.054688 22.066406 20.207031 22.242188 20.023438 C 22.3125 19.949219 22.300781 19.871094 22.21875 19.777344 C 21.972656 19.496094 21.722656 19.246094 21.488281 18.96875 C 21.59375 18.816406 21.675781 18.660156 21.757812 18.46875 L 23.023438 18.316406 C 23.140625 18.304688 23.222656 18.199219 23.222656 18.125 L 23.222656 16.855469 C 23.222656 16.769531 23.140625 16.671875 23.023438 16.644531 Z M 17.914062 18.910156 C 16.945312 18.910156 16.15625 18.265625 16.15625 17.480469 C 16.15625 16.671875 16.945312 16.03125 17.914062 16.03125 C 18.894531 16.03125 19.683594 16.671875 19.683594 17.480469 C 19.683594 18.265625 18.894531 18.910156 17.914062 18.910156 Z M 17.914062 18.910156 "/>
</g>
</svg>
