<?xml version="1.0" encoding="UTF-8"?>
<svg xmlns="http://www.w3.org/2000/svg" xmlns:xlink="http://www.w3.org/1999/xlink" width ="58" height ="71.5" version="1.1">
	<g  transform="matrix(1.4970033415052841, 0, 0, 1.4970033415052841, -241.83786419382287, -84.96938177463059)">
		<g transform="matrix(1.779247760772705, 0, 0, 1.779247760772705, 156.21023559570312, 56.759647369384766)" fill="rgba(239, 239, 239, 1)">
			<path d="M20.5 5.5V22A1.5 1.5 0 0 1 19 23.5H5A1.5 1.5 0 0 1 3.5 22V2A1.5 1.5 0 0 1 5 .5H15.5Z" fill="rgba(239, 239, 239, 1)" stroke="#303c42" stroke-linecap="round" stroke-linejoin="round" stroke-width="1" transform="matrix(1, 0, 0, 1, 0, 0)" ></path>
			<path d="M15.5.5V4A1.5 1.5 0 0 0 17 5.5h3.5" fill="rgba(239, 239, 239, 1)" stroke="#303c42" stroke-linecap="round" stroke-linejoin="round" stroke-width="1" transform="matrix(1, 0, 0, 1, 0, 0)" data-uid="o_f0kg964ib_6"></path>
		</g>
		<g transform="matrix(1.779247760772705, 0, 0, 1.779247760772705, 161.51956176757812, 60.944053649902344)" fill="rgba(239, 239, 239, 1)" data-uid="o_f0kg964ib_8">
			<path d="M20.5 5.5V22A1.5 1.5 0 0 1 19 23.5H5A1.5 1.5 0 0 1 3.5 22V2A1.5 1.5 0 0 1 5 .5H15.5Z" fill="rgba(239, 239, 239, 1)" stroke="#303c42" stroke-linecap="round" stroke-linejoin="round" stroke-width="1" transform="matrix(1, 0, 0, 1, 0, 0)"></path>
			<path d="M15.5.5V4A1.5 1.5 0 0 0 17 5.5h3.5" fill="rgba(239, 239, 239, 1)" stroke="#303c42" stroke-linecap="round" stroke-linejoin="round" stroke-width="1" transform="matrix(1, 0, 0, 1, 0, 0)"></path>
		</g>
		<g transform="matrix(0.3336089551448822, 0, 0, 0.3336089551448822, 163.18678283691406, 61.511287689208984)">
			<path d="M465.5 413.4H36c-19.8 0-36-16.2-36-36V139.8c0-19.8 16.2-36 36-36h429.5c19.8 0 36 16.2 36 36v237.7
			C501.5 397.2 485.3 413.4 465.5 413.4z" transform="matrix(0.09405117481946945, 0, 0, 0.09405117481946945, 62.83333206176758, 74.87610626220703)" fill="rgba(255, 0, 0, 1)" data-uid="o_f0kg964ib_12"></path><path text="PDF" fill="#000000" space="preserve" text-anchor="middle" offset="0.5" font-scale="contain" font-size="48" font-family="Open Sans" transform="matrix(0.452862411737442, 0, 0, 0.452862411737442, 85.56832885742188, 106.95753479003906)" data-uid="o_f0kg964ib_13" data-fl-textpath="" d="M-17.89203125-24.28L-17.89203125-24.28Q-17.89203125-19.08 -21.44203125-16.28Q-24.99203125-13.48 -31.60203125-13.48L-31.60203125-13.48L-35.63203125-13.48L-35.63203125 0L-39.62203125 0L-39.62203125-34.27L-30.74203125-34.27Q-17.89203125-34.27 -17.89203125-24.28ZM-35.63203125-30.82L-35.63203125-16.9L-32.05203125-16.9Q-26.75203125-16.9 -24.38203125-18.61Q-22.02203125-20.32 -22.02203125-24.09L-22.02203125-24.09Q-22.02203125-27.49 -24.24203125-29.16Q-26.47203125-30.82 -31.18203125-30.82L-31.18203125-30.82L-35.63203125-30.82ZM 16.626406250000002-17.46L 16.626406250000002-17.46Q 16.626406250000002-8.98  12.02640625-4.49Q 7.416406250000001 0 -1.2335937500000007 0L-1.2335937500000007 0L-10.72359375 0L-10.72359375-34.27L-0.22359374999999915-34.27Q 7.766406249999999-34.27  12.196406249999999-29.84Q 16.626406250000002-25.41  16.626406250000002-17.46ZM 12.40640625-17.32L 12.40640625-17.32Q 12.40640625-24.02  9.04640625-27.42Q 5.686406250000001-30.82 -0.9535937499999996-30.82L-0.9535937499999996-30.82L-6.733593750000001-30.82L-6.733593750000001-3.45L-1.8835937499999993-3.45Q 5.236406250000002-3.45  8.826406250000002-6.95Q 12.40640625-10.45  12.40640625-17.32ZM 28.25859375-14.65L 28.25859375 0L 24.26859375 0L 24.26859375-34.27L 43.36859375-34.27L 43.36859375-30.73L 28.25859375-30.73L 28.25859375-18.19L 42.45859375-18.19L 42.45859375-14.65L 28.25859375-14.65Z"></path></g><g transform="matrix(0.14036311209201813, 0, 0, 0.14036311209201813, 175.85939025878906, 75.26985168457031)" data-uid="o_f0kg964ib_14"><path d="M82.6 39.8c-0.5-1.8-1.3-3.7-2.3-5.7c1.9-2.6 4.1-5.2 6-8.1c0.6-0.8 0.6-1.7 0-2.6c-2.4-3.5-6.4-7.1-9.7-9.9  c-0.8-0.8-1.9-0.8-2.8-0.1l-8.4 6.2c-1.6-0.8-3.5-1.5-5.2-2.2L58.6 6.8C58.5 5.7 57.7 5 56.5 5h-13c-1.2 0-2 0.7-2.2 1.7  c-0.8 3.4-1.2 7.3-1.6 10.7c-1.8 0.6-3.6 1.3-5.2 2.3l-8.1-6.2c-0.5-0.4-1.2-0.7-1.6-0.7c-2 0-9.8 8.7-11.3 10.6  c-0.8 1-0.7 1.6 0.1 2.7c2.1 2.8 4.2 5.4 6.2 8.1c-0.9 1.9-1.6 3.4-2.2 5.4L6.6 41.2C5.7 41.4 5 42.5 5 43.5v12.9  c0 1 0.7 1.9 1.7 2.1l10.6 1.7c0.5 1.8 1.4 3.7 2.3 5.6c-1.9 2.7-4 5.2-6 8.1c-0.6 0.9-0.5 1.8 0 2.6c2.5 3.5 6.4 7.1 9.7 10  c0.9 0.8 1.9 0.8 2.8 0.2l8.4-6.2c1.7 0.8 3.5 1.5 5.2 2.1l1.6 10.7c0.1 0.9 1 1.8 2.2 1.8h13c1.2 0 1.8-0.7 2.1-1.7  c0.9-3.4 1.3-7.3 1.7-10.7c1.8-0.6 3.6-1.4 5.3-2.2l8.1 6.3c0.5 0.4 1.1 0.5 1.6 0.5c1.9 0 9.8-8.8 11.3-10.7  c0.6-0.8 0.5-1.6-0.2-2.6c-2.1-2.9-4.2-5.5-6.2-8.4c0.9-1.6 1.6-3.2 2.3-5.2l10.7-1.6c1-0.1 1.7-1.2 1.7-2V43.6  c0-0.9-0.7-1.9-1.7-2.2L82.6 39.8z M49.9 65C41.7 65 35 58.3 35 50.1C35 41.7 41.7 35 49.9 35c8.3 0 15 6.7 15 15.1  C64.9 58.3 58.2 65 49.9 65z" transform="matrix(1, 0, 0, 1, 0, 0)"></path>
		</g>
	</g>
</svg>



